# xmcd
#
# Track frame offsets:
#	150
#	12226
#	24287
#	37405
#	49871
#	65037
#	79074
#	95800
#	109241
#	127707
#	142505
#	154896
#	166268
#	180991
#	197415
#	211651
#	226569
#	241097
#	254495
#	268686
#	285637
#	307270
#	318821
#
# Disc length: 4497 seconds
#
# Revision: 0
# Processed by: cddbd v1.5.2PL0 Copyright (c) Steve Scherf et al.
# Submitted via: EasyCDDAExtractor 16.0.1.1
#
DISCID=2f118f17
DTITLE=John Hammond - Southern Fried and Source Point
DYEAR=1971
DGENRE=Blues
TTITLE0=Shake for Me
TTITLE1=Cryin' for My Baby
TTITLE2=I'm Tore Down
TTITLE3=Don't Go No Further
TTITLE4=I'm Leavin' You
TTITLE5=It's Too Late
TTITLE6=Nadine
TTITLE7=Mystery Train
TTITLE8=My Time After a While
TTITLE9=I Can't Be Satisfied
TTITLE10=You'll Be Mine
TTITLE11=Riding in the Moonlight
TTITLE12=I Got Love If You Want It
TTITLE13=Hoo-Doo  Blues
TTITLE14=Mellow Down Easy
TTITLE15=Takin' Care Of Business
TTITLE16=She Moves Me
TTITLE17=Let's Go Home
TTITLE18=Tell Me Mama
TTITLE19=No Place To Go
TTITLE20=My First Plea
TTITLE21=Junco Partner (P  D)
TTITLE22=As The Years Go Passing By
EXTD=
EXTT0=
EXTT1=
EXTT2=
EXTT3=
EXTT4=
EXTT5=
EXTT6=
EXTT7=
EXTT8=
EXTT9=
EXTT10=
EXTT11=
EXTT12=
EXTT13=
EXTT14=
EXTT15=
EXTT16=
EXTT17=
EXTT18=
EXTT19=
EXTT20=
EXTT21=
EXTT22=
PLAYORDER=
